Coordinates
version=1
nRows=19
nColumns=36
inDegrees=yes

Units are S.I. units (second, meters, Newtons, ...)
If the header above contains a line with 'inDegrees', this indicates whether rotational values are in degrees (yes) or radians (no).

endheader
time	pelvis_tilt	pelvis_list	pelvis_rotation	pelvis_tx	pelvis_ty	pelvis_tz	hip_flexion_r	hip_adduction_r	hip_rotation_r	knee_angle_r	knee_angle_r_beta	ankle_angle_r	subtalar_angle_r	mtp_angle_r	hip_flexion_l	hip_adduction_l	hip_rotation_l	knee_angle_l	knee_angle_l_beta	ankle_angle_l	subtalar_angle_l	mtp_angle_l	lumbar_extension	lumbar_bending	lumbar_rotation	arm_flex_r	arm_add_r	arm_rot_r	elbow_flex_r	pro_sup_r	arm_flex_l	arm_add_l	arm_rot_l	elbow_flex_l	pro_sup_l
      2.00000000	    -22.50098461	     -1.18604920	     -1.22894262	     -0.30698270	      1.06832316	     -0.58489640	     46.03958029	     -8.31700143	     -6.12437666	     34.04409209	      0.59418150	     17.73782748	      0.46333909	     -7.49999987	     47.46718018	    -15.05822906	     -9.67607893	     37.39674410	      0.65269631	     18.01646583	      4.54144061	     -7.49999987	    -20.44746058	      0.75478110	      8.55271092	     44.62389094	    -17.92626186	     22.35977213	     92.61454321	     82.96260823	     51.04498847	    -12.10238603	     31.28684732	     86.94423095	     85.01964418
      2.01000000	    -23.23832991	     -1.23762692	     -1.19230342	     -0.31105587	      1.06379068	     -0.58574021	     47.65851417	     -8.45562042	     -6.28600511	     35.06750397	      0.61204340	     17.86758668	      0.52678672	     -7.49999987	     49.13444879	    -15.20236801	     -9.44260263	     38.41284752	      0.67043066	     18.09585951	      4.67187220	     -7.49999987	    -21.23968540	      0.71898381	      8.62895374	     46.83245414	    -17.67093016	     21.87197488	     92.33903907	     82.54466481	     53.21233802	    -11.67168505	     30.58972463	     86.75554209	     84.64168568
      2.02000000	    -24.10964069	     -1.47073036	     -1.03775170	     -0.31542535	      1.05989391	     -0.58612022	     49.29633026	     -8.56306226	     -6.70184725	     35.99320990	      0.62820002	     18.17151192	      0.89372491	     -7.49999987	     51.02861009	    -15.36278602	     -8.90841189	     39.45958334	      0.68869965	     18.32638004	      4.94469472	     -7.49999987	    -21.84788528	      0.97096032	      8.87304023	     49.29693032	    -18.20545291	     22.45941801	     91.97525303	     82.41412671	     55.77433478	    -11.44995732	     31.01304354	     86.03833422	     84.76660625
      2.03000000	    -24.76435062	     -1.60617734	     -0.89228315	     -0.32008459	      1.05663889	     -0.58497732	     50.64031871	     -8.70333553	     -6.99869821	     36.79701994	      0.64222915	     18.27568259	      1.04736568	     -7.49999987	     52.53856478	    -15.45811920	     -8.54390684	     40.29871427	      0.70334525	     18.39504578	      5.08745201	     -7.49999987	    -22.80895827	      1.01759642	      9.19552408	     51.83705019	    -18.43184360	     22.44255338	     91.41404528	     81.96257606	     58.39018786	    -10.92126388	     30.99554164	     85.16075144	     84.54561367
      2.04000000	    -25.41700357	     -1.73360294	     -0.77222846	     -0.32539709	      1.05146700	     -0.58423644	     52.02124566	     -8.82541487	     -7.20705048	     37.66346960	      0.65735155	     18.35340805	      1.12207889	     -7.49999987	     54.06629124	    -15.54489617	     -8.13046756	     41.19751693	      0.71903231	     18.48351953	      5.18639786	     -7.49999987	    -23.78943477	      0.92973969	      9.90505087	     54.21019377	    -19.03681364	     22.07064222	     91.31577399	     80.80195495	     61.28288586	     -9.91386119	     31.28584736	     83.98123579	     84.72229713
      2.05000000	    -26.24282059	     -1.89088809	     -0.67877434	     -0.33176185	      1.04338523	     -0.58493626	     53.74390801	     -8.96846238	     -7.41010764	     38.78603746	      0.67694406	     18.53012024	      1.23691737	     -7.49999987	     55.92774106	    -15.66778483	     -7.65442202	     42.33794340	      0.73893651	     18.69558706	      5.33978501	     -7.49999987	    -24.57234739	      1.08204424	     10.18170765	     57.03498242	    -19.19515251	     22.45092454	     90.98917801	     80.07048445	     63.69238825	     -9.39943312	     31.10037984	     83.86140868	     84.03096460
      2.06000000	    -27.07664966	     -2.01657165	     -0.61609316	     -0.33884726	      1.03443941	     -0.58557515	     55.65072921	     -9.15299335	     -7.56386121	     40.14522504	      0.70066636	     18.75577528	      1.16637658	     -7.49999987	     57.92759347	    -15.77618858	     -7.17746390	     43.65375583	      0.76190177	     18.83839523	      5.23886250	     -7.49999987	    -25.27898578	      1.13877058	     10.61929284	     59.83233060	    -19.55323544	     22.74683119	     90.67469079	     79.37074631	     66.33971489	     -8.60896025	     31.21022580	     83.35236119	     83.69474369
      2.07000000	    -28.01298831	     -2.14382293	     -0.57297542	     -0.34474794	      1.02600559	     -0.58588901	     57.69768438	     -9.34420415	     -7.67436533	     41.55105427	      0.72520270	     18.99062831	      1.19009965	     -7.49999987	     60.08079010	    -15.88926836	     -6.69761007	     45.03882387	      0.78607577	     19.04575983	      5.27222013	     -7.49999987	    -25.85129376	      1.26475207	     11.12636782	     62.31973901	    -19.94208647	     22.86838259	     90.51752992	     78.83710264	     68.71151324	     -7.80062304	     31.14786658	     83.06958620	     83.48426112
      2.08000000	    -28.88375236	     -2.31457703	     -0.52778235	     -0.34817791	      1.01820986	     -0.58755254	     59.62769401	     -9.51977336	     -7.81378876	     42.92739453	      0.74922437	     19.27887961	      1.10809879	     -7.49999987	     62.14120960	    -15.97077568	     -6.11401397	     46.39304333	      0.80971136	     19.32033156	      5.27713846	     -7.49999987	    -26.41500026	      1.43675451	     11.59110153	     64.46927868	    -20.41844145	     22.86065285	     90.39099930	     78.45690419	     70.70155440	     -7.01670241	     31.00844968	     82.80190529	     83.40416168
      2.09000000	    -29.57240063	     -2.36133412	     -0.56544858	     -0.34997060	      1.01076621	     -0.59057043	     61.35023130	     -9.71015334	     -7.77423021	     44.25111722	      0.77232769	     19.57050127	      1.01204368	     -7.49999987	     63.86602274	    -16.00012093	     -5.64308495	     47.65397133	      0.83171870	     19.55506322	      5.10114387	     -7.49999987	    -27.10590168	      1.48475803	     12.14431994	     66.42632373	    -21.01082670	     22.82439107	     90.27852783	     77.92850114	     72.52443116	     -6.14630459	     30.87420114	     82.32550741	     83.27645267
      2.10000000	    -30.23728038	     -2.43791531	     -0.57035908	     -0.35277561	      1.00315157	     -0.59287567	     63.04428956	     -9.91986614	     -7.75520471	     45.61003306	      0.79604525	     19.90624856	      0.86583782	     -7.49999987	     65.58319037	    -15.99984809	     -5.11472624	     48.92230642	      0.85385532	     19.79192164	      4.82915665	     -7.49999987	    -27.75097295	      1.58463832	     12.75791888	     68.41928921	    -21.63863367	     22.76596371	     90.09782187	     77.64010520	     74.43571928	     -5.06299963	     30.71955284	     81.50815340	     83.60271528
      2.11000000	    -30.97197237	     -2.44551131	     -0.61645192	     -0.35774468	      0.99520822	     -0.59290938	     64.88508517	    -10.16232598	     -7.68337648	     47.07172776	      0.82155663	     20.24741164	      0.86149664	     -7.49999987	     67.41341112	    -16.03084176	     -4.70175493	     50.28371735	      0.87761643	     20.08896059	      4.71443606	     -7.49999987	    -28.33891967	      1.57648687	     13.32511978	     70.66979693	    -22.11370989	     22.71937513	     89.84339800	     77.15904770	     76.55394767	     -4.02441968	     30.52300498	     80.63192485	     83.70489351
      2.12000000	    -31.55977011	     -2.48421593	     -0.63644421	     -0.36317446	      0.98730605	     -0.59182110	     66.61183732	    -10.36861990	     -7.57739144	     48.61772164	      0.84853932	     20.60920836	      0.63863068	     -7.49999987	     69.13253539	    -16.06063263	     -4.23388766	     51.66405301	      0.90170783	     20.37689134	      4.38698063	     -7.49999987	    -29.10657913	      1.49227580	     14.00313245	     72.95424434	    -22.74728527	     22.48222615	     89.75016957	     76.34948987	     79.04549603	     -2.84044202	     30.50663096	     79.30810573	     84.01365729
      2.13000000	    -32.38835962	     -2.49491098	     -0.68721064	     -0.36717508	      0.97882404	     -0.59147102	     68.61078487	    -10.57237987	     -7.43969093	     50.19593261	      0.87608430	     20.97395247	      0.61231850	     -7.49999987	     71.10537456	    -16.09488126	     -3.79010388	     53.09066244	      0.92660686	     20.69508426	      4.28493679	     -7.49999987	    -29.47179884	      1.44548470	     14.29554758	     74.95374400	    -23.01127645	     22.43056843	     89.57557852	     76.27368416	     80.89293700	     -2.30977898	     30.32110111	     78.77850240	     84.65105864
      2.14000000	    -33.03425220	     -2.49574400	     -0.68513630	     -0.37001758	      0.97130370	     -0.59203206	     70.36499247	    -10.80691892	     -7.28562112	     51.70600750	      0.90244007	     21.32572947	      0.42918671	     -7.49999987	     72.81256842	    -16.06190482	     -3.36081795	     54.40523555	      0.94955049	     20.95553391	      4.02193556	     -7.49999987	    -30.01912805	      1.44128172	     14.58964089	     76.81739604	    -23.31535969	     22.37865756	     89.37274525	     76.40684057	     82.62942445	     -1.82176975	     30.11706145	     78.23502071	     85.54307107
      2.15000000	    -33.61571261	     -2.50285479	     -0.78498097	     -0.37245540	      0.96468919	     -0.59247770	     71.94815900	    -10.89114158	     -7.06517966	     53.03827236	      0.92569248	     21.70622546	      0.48036536	     -7.49999987	     74.34964917	    -16.14332027	     -2.98014392	     55.62626951	      0.97086155	     21.40168300	      4.08813270	     -7.49999987	    -30.71312894	      1.43945748	     14.84085348	     78.48184515	    -23.18804578	     21.85753620	     89.31990170	     76.41474019	     84.15181363	     -1.58869980	     29.65702041	     78.17280555	     85.79874583
      2.16000000	    -34.19795650	     -2.45182155	     -0.76561229	     -0.37477872	      0.95764705	     -0.59329887	     73.53007792	    -11.16725395	     -6.92399455	     54.38848913	      0.94925821	     22.00189881	      0.39685139	     -7.49999987	     75.85960203	    -16.04846562	     -2.60549094	     56.81324671	      0.99157821	     21.57836371	      3.71502701	     -7.49999987	    -31.25478957	      1.38391858	     15.15610552	     80.42910602	    -23.84662925	     22.54616642	     88.90478116	     75.84868728	     86.09977459	     -1.19826277	     30.03272188	     77.18777683	     85.55019242
      2.17000000	    -34.71394404	     -2.40826984	     -0.79039462	     -0.37757122	      0.94994821	     -0.59396024	     75.01871749	    -11.33460818	     -6.68621297	     55.68630546	      0.97190938	     22.26856656	      0.34335895	     -7.49999987	     77.25312298	    -16.01365584	     -2.24427961	     57.95384256	      1.01148537	     21.90242910	      3.55922924	     -7.49999987	    -31.93421703	      1.33844936	     15.46348617	     82.34379020	    -24.15181197	     22.74744080	     88.66911500	     75.23592283	     87.90875139	     -0.83358268	     29.86694680	     76.62560639	     85.34917375
      2.18000000	    -35.32698565	     -2.36630205	     -0.84692042	     -0.38233486	      0.94185654	     -0.59411165	     76.61822091	    -11.47606510	     -6.45200665	     56.96678224	      0.99425791	     22.56127538	      0.33295686	     -7.49999987	     78.78710009	    -16.01416977	     -1.89453515	     59.13110719	      1.03203251	     22.17141295	      3.37579291	     -7.49999987	    -32.49769310	      1.32258391	     15.79651349	     84.31352623	    -24.24469711	     22.88815593	     88.32208454	     74.81214699	     89.57082356	     -0.49565051	     29.38361609	     76.26498150	     85.24416251
